<svg width="110" height="97" viewBox="0 0 110 97" fill="none" xmlns="http://www.w3.org/2000/svg">
<path d="M101.431 33.0815L101.432 33.0826C103.034 36.9147 102.83 42.1065 100.842 46.9788C98.0354 53.7545 92.6145 58.1745 87.4472 58.1745C86.351 58.1745 85.2944 57.9726 84.2661 57.5674L84.2542 57.5627L84.242 57.5586L84.2317 57.5551C82.0099 56.655 80.2759 54.8641 79.2284 52.343L79.2283 52.3427C77.6335 48.5105 77.8454 43.3103 79.8576 38.4383L79.8578 38.4379C82.6148 31.7464 87.9792 27.3302 93.0938 27.25H93.2206C94.3167 27.25 95.3733 27.4519 96.4017 27.8571L96.4316 27.8689L96.4613 27.8764C98.6587 28.7788 100.386 30.567 101.431 33.0815Z" fill="#5E17EB" stroke="white"/>
<path d="M66.8911 38.1301L66.886 38.1294C63.8806 37.6857 61.4017 35.6117 59.8209 32.488C58.2396 29.3633 57.5782 25.2185 58.2191 20.7452L58.2192 20.7447C58.7556 16.9763 60.1874 13.4905 62.2237 10.9193L62.2238 10.9192C64.5049 8.03736 67.3684 6.5 70.2509 6.5C70.6478 6.5 71.0374 6.52356 71.4222 6.5844L71.4222 6.58442L71.4267 6.58508C74.4328 7.03277 76.9139 9.10725 78.4955 12.2308C80.0777 15.3553 80.7391 19.4998 80.0943 23.9769C79.5497 27.7383 78.1257 31.216 76.0896 33.7871L76.0891 33.7877C73.8072 36.6785 70.9518 38.2228 68.0706 38.2228C67.6722 38.2228 67.2818 38.1919 66.8911 38.1301Z" fill="#5E17EB" stroke="white"/>
<path d="M44.1093 38.1294L44.1043 38.1302C43.7133 38.192 43.323 38.2228 42.933 38.2228C40.0518 38.2228 37.1962 36.6785 34.9057 33.787C32.8693 31.2155 31.4376 27.7378 30.9013 23.978L30.9012 23.9773C30.2562 19.5 30.9176 15.3554 32.4998 12.2318C34.0815 9.10943 36.5623 7.03719 39.5681 6.5934L39.5681 6.59342L39.5732 6.59263C39.9641 6.53082 40.3545 6.5 40.7445 6.5C43.627 6.5 46.4904 8.03736 48.7716 10.9192L48.7717 10.9193C50.808 13.4905 52.2397 16.9763 52.7762 20.7447L52.7763 20.7456C53.4212 25.2187 52.7599 29.3633 51.1776 32.4879C49.5959 35.6115 47.1149 37.6856 44.1093 38.1294Z" fill="#5E17EB" stroke="white"/>
<path d="M26.7411 57.5629L26.7539 57.5586L26.7642 57.5551C28.9854 56.6552 30.7117 54.8646 31.7595 52.3507L31.7596 52.3505C33.3623 48.5102 33.1504 43.3102 31.1383 38.4383L31.1382 38.438C28.3476 31.6704 22.9266 27.25 17.7671 27.25C16.6703 27.25 15.606 27.4522 14.5872 27.8567L14.5567 27.8688L14.5257 27.8766C12.3292 28.7707 10.6015 30.5583 9.55657 33.0732L26.7411 57.5629ZM26.7411 57.5629L26.7286 57.5678M26.7411 57.5629L26.7286 57.5678M26.7286 57.5678C25.7094 57.9725 24.6532 58.1745 23.5569 58.1745C18.3974 58.1745 12.9764 53.7541 10.1858 46.9865C8.17353 42.1061 7.96153 36.9139 9.55654 33.0733L26.7286 57.5678Z" fill="#5E17EB" stroke="white"/>
<path d="M71.9524 55.5716L71.9522 55.5713C69.2904 51.1236 67.2023 47.6381 64.7503 45.2492C62.3332 42.8945 59.563 41.6094 55.5021 41.6094C51.4369 41.6094 48.6625 42.8946 46.2413 45.2495C43.7852 47.6384 41.6931 51.1239 39.0272 55.5715L39.0271 55.5719C37.0464 58.8707 34.0273 60.7025 30.9564 62.5657L30.8632 62.6223L30.8627 62.6226C27.2639 64.8005 23.7372 66.9583 22.2055 71.1798L22.2017 71.1905L22.2016 71.1904C21.6036 72.7288 21.3052 74.3282 21.3209 75.992L21.3209 75.9967C21.3209 82.9138 26.6578 88.5002 33.168 88.5002C36.5917 88.5002 40.2425 87.3058 44.224 85.9985C48.0065 84.7551 52.0249 83.4387 55.5184 83.4387C59.0121 83.4387 63.0222 84.7551 66.7887 85.9987L71.9524 55.5716ZM71.9524 55.5716C73.9447 58.8953 76.9956 60.7384 80.0923 62.6061L71.9524 55.5716Z" fill="#5E17EB" stroke="white"/>
</svg>
