<svg width="56" height="56" viewBox="0 0 56 56" fill="none" xmlns="http://www.w3.org/2000/svg">
<mask id="mask0_1_11046" style="mask-type:luminance" maskUnits="userSpaceOnUse" x="0" y="0" width="57" height="56">
<path d="M5.94264 0.218689H50.2762C51.7933 0.218689 53.2475 0.821552 54.3207 1.89478C55.3973 2.96801 56.0001 4.42548 56.0001 5.94257V50.2762C56.0001 51.7933 55.3973 53.2507 54.3207 54.324C53.2475 55.3972 51.7933 56.0001 50.2762 56.0001H5.94264C4.42223 56.0001 2.96807 55.3972 1.89484 54.324C0.821613 53.2507 0.21875 51.7933 0.21875 50.2762V5.94257C0.21875 4.42548 0.821613 2.96801 1.89484 1.89478C2.96807 0.821552 4.42223 0.218689 5.94264 0.218689Z" fill="white"/>
</mask>
<g mask="url(#mask0_1_11046)">
<path d="M0.21875 0.218689H56.0001V56.0001H0.21875V0.218689Z" fill="white"/>
</g>
<mask id="mask1_1_11046" style="mask-type:luminance" maskUnits="userSpaceOnUse" x="0" y="0" width="56" height="56">
<path d="M0 0H56V56H0V0Z" fill="white"/>
</mask>
<g mask="url(#mask1_1_11046)">
</g>
<path d="M44.8068 22.7476C44.4104 21.8009 43.7478 21.1175 42.8958 20.7744L42.8839 20.7714C42.4905 20.6176 42.0852 20.5406 41.6651 20.5406H41.6178C39.6653 20.5702 37.6713 22.2299 36.6566 24.6734C35.9141 26.4573 35.8283 28.3773 36.4288 29.8091C36.8253 30.7558 37.4879 31.4391 38.3458 31.7823L38.3547 31.7853C38.7482 31.9391 39.1535 32.016 39.5736 32.016C41.5468 32.016 43.5614 30.3534 44.5938 27.8803C45.3275 26.0964 45.4103 24.1794 44.8068 22.7476Z" fill="#313131"/>
<path d="M37.003 33.2761C35.8759 32.6016 34.8109 31.9596 34.1157 30.8088C32.1957 27.6257 31.039 25.7028 28.0008 25.7028C24.9596 25.7028 23.8 27.6257 21.877 30.8088C21.1789 31.9626 20.1109 32.6016 18.9808 33.282C17.6851 34.0601 16.3479 34.8647 15.7681 36.4504C15.5432 37.0243 15.4308 37.6219 15.4367 38.2431C15.4367 40.8198 17.4425 42.9173 19.9097 42.9173C21.1848 42.9173 22.5367 42.4765 23.9715 42.0091C25.3501 41.5594 26.776 41.0979 28.0067 41.0979C29.2374 41.0979 30.6603 41.5594 32.033 42.0091C33.4648 42.4736 34.8109 42.9143 36.0889 42.9143C38.5502 42.9143 40.556 40.8169 40.556 38.2402C40.5589 37.6189 40.4435 37.0213 40.2157 36.4474C39.6359 34.8618 38.2987 34.0571 37.003 33.2761Z" fill="#313131"/>
<path d="M20.398 23.1824C21.2529 24.2533 22.3357 24.845 23.448 24.845C23.5989 24.845 23.7497 24.8331 23.9006 24.8095C26.2229 24.4693 27.6695 21.6352 27.1932 18.3573C26.995 16.9758 26.4655 15.6919 25.7052 14.7393C24.8532 13.6714 23.7675 13.0826 22.6552 13.0826C22.5043 13.0826 22.3534 13.0945 22.2025 13.1181C19.8802 13.4584 18.4336 16.2895 18.9099 19.5703C19.1081 20.9489 19.6377 22.2298 20.398 23.1824Z" fill="#313131"/>
<path d="M32.0982 24.8095C32.249 24.8331 32.3999 24.845 32.5537 24.845C33.6661 24.845 34.7488 24.2533 35.6008 23.1824C36.3611 22.2298 36.8877 20.9489 37.0889 19.5703C37.5652 16.2895 36.1185 13.4583 33.7962 13.1152C33.6454 13.0915 33.4945 13.0826 33.3436 13.0826C32.2313 13.0826 31.1456 13.6714 30.2936 14.7393C29.5333 15.6919 29.0037 16.9758 28.8055 18.3573C28.3322 21.6352 29.7759 24.4693 32.0982 24.8095Z" fill="#313131"/>
<path d="M17.6437 31.7853L17.6526 31.7823C18.5105 31.4391 19.1702 30.7558 19.5666 29.8121C20.1701 28.3773 20.0843 26.4573 19.3418 24.6734C18.3152 22.2032 16.3006 20.5406 14.3304 20.5406C13.9103 20.5406 13.502 20.6176 13.1115 20.7714L13.0997 20.7744C12.2477 21.1146 11.585 21.7979 11.1886 22.7446C10.5881 24.1794 10.6739 26.0964 11.4164 27.8832C12.4429 30.3534 14.4576 32.016 16.4278 32.016C16.8479 32.016 17.2532 31.9391 17.6437 31.7853Z" fill="#313131"/>
</svg>
