<svg width="123" height="32" viewBox="0 0 123 32" fill="none" xmlns="http://www.w3.org/2000/svg">
<path fill-rule="evenodd" clip-rule="evenodd" d="M99.4501 2.49501C99.4501 2.05474 99.4637 1.72715 99.4936 1.50963C99.5208 1.29474 99.6051 1.04577 99.7439 0.765361C100.019 0.256948 100.783 0.00012207 102.04 0.00012207C103.238 0.00012207 103.983 0.256948 104.283 0.765361C104.435 1.04577 104.525 1.29998 104.555 1.5306C104.59 1.75598 104.609 2.08356 104.609 2.51598V15.6508C104.609 16.3296 104.666 16.7594 104.783 16.9402C104.897 17.1237 105.156 17.2128 105.556 17.2128C105.961 17.2128 106.233 17.2285 106.372 17.2547C106.508 17.2835 106.677 17.3648 106.873 17.4958C107.265 17.7421 107.461 18.413 107.461 19.5085C107.461 20.6983 107.265 21.4242 106.873 21.6889C106.364 22.0296 105.145 22.0872 103.216 21.8566C101.706 21.6679 100.726 21.1857 100.277 20.41C99.7249 19.4875 99.4501 18.0147 99.4501 15.9863V2.49501ZM15.4702 8.74782C15.4702 7.56374 15.2381 6.49074 14.7764 5.5263C14.3196 4.55682 13.7308 3.78931 13.0077 3.22378C11.5469 2.05989 10.042 1.47668 8.49322 1.47668H2.83544C1.70681 1.47668 1.02035 1.72411 0.773618 2.2139C0.629486 2.49161 0.543984 2.73399 0.519555 2.94101C0.492683 3.15056 0.480469 3.46362 0.480469 3.8802V19.0486C0.480469 19.6823 0.53177 20.1544 0.636815 20.4624C0.851792 21.1365 1.57489 21.4723 2.80612 21.4723C3.9323 21.4723 4.61876 21.2274 4.86794 20.7351C5.00963 20.4675 5.09513 20.2276 5.122 20.0181C5.14643 19.8035 5.16109 19.4879 5.16109 19.0688V15.9887H8.46391C10.0323 15.9887 11.5469 15.4029 13.0077 14.2315C13.7308 13.6735 14.3196 12.9161 14.7764 11.9592C15.2381 11.0049 15.4702 9.93443 15.4702 8.74782ZM10.0469 10.5555C9.53879 10.9544 9.02089 11.1513 8.49322 11.1513H5.16109V6.31401H8.46391C9.01112 6.31401 9.53879 6.52104 10.0469 6.93004C10.5599 7.34156 10.8189 7.94749 10.8189 8.74782C10.8189 9.55068 10.5599 10.1516 10.0469 10.5555ZM29.5798 14.7195C30.1655 14.1836 30.4597 13.3583 30.4597 12.2436C30.4597 11.1239 30.1337 10.0947 29.4844 9.15365C28.2468 7.3772 26.2988 6.48645 23.6433 6.48645C21.3111 6.48645 19.3632 7.17086 17.8022 8.53969C16.2465 9.90852 15.47 11.7378 15.47 14.0251C15.47 15.8368 16.0689 17.4824 17.2722 18.9569C17.887 19.7168 18.7404 20.3257 19.8376 20.7887C20.9401 21.2517 22.1963 21.4832 23.6115 21.4832C27.6823 21.4832 29.7176 20.6755 29.7176 19.0575C29.7176 18.7153 29.5931 18.3001 29.3466 17.8095C28.9067 16.9917 28.3819 16.5816 27.7671 16.5816C27.4623 16.5816 27.0807 16.6822 26.6222 16.8835L26.3041 16.9942C25.6734 17.2106 24.8041 17.3163 23.6963 17.3163C23.0656 17.3163 22.4348 17.1452 21.7987 16.803C21.168 16.4608 20.8553 16.0355 20.8553 15.5247H27.6505C28.3554 15.5247 28.9994 15.258 29.5798 14.7195ZM25.4985 12.1731C25.4985 12.7569 25.138 13.0488 24.4172 13.0488H20.8023C20.8023 12.5002 21.1044 11.9869 21.7139 11.5088C22.3288 11.0257 22.9463 10.7842 23.5691 10.7842C24.1893 10.7842 24.6663 10.9125 25.0002 11.1666C25.3315 11.4233 25.4985 11.7579 25.4985 12.1731ZM39.9328 12.064L38.07 11.9547V15.6705C38.07 16.1548 38.1493 16.505 38.3134 16.7236C38.4748 16.9372 38.7791 17.0415 39.2236 17.0415C39.6735 17.0415 40.0201 17.0564 40.2609 17.0812C40.499 17.1086 40.753 17.1905 41.0229 17.3296C41.4595 17.568 41.6791 18.1716 41.6791 19.1378C41.6791 20.2654 41.4092 20.9534 40.8747 21.2043C40.5916 21.331 40.3376 21.408 40.1127 21.4328C39.8931 21.4601 39.5756 21.4725 39.1601 21.4725C37.1756 21.4725 35.6674 21.0528 34.6301 20.2108C33.5982 19.3713 33.0849 17.9456 33.0849 15.9387V11.9547C32.725 12.0143 32.3334 12.0442 31.91 12.0442C31.492 12.0442 31.148 11.8926 30.8728 11.5871C30.5976 11.2841 30.46 10.7625 30.46 10.0273C30.46 9.29214 30.505 8.76061 30.5976 8.42779C30.6955 8.09745 30.8305 7.85901 30.9998 7.71246C31.3014 7.48147 31.6825 7.36474 32.1429 7.36474L33.0849 7.47402V4.70214C33.0849 4.29232 33.0981 3.98681 33.1272 3.78811C33.1616 3.58941 33.2542 3.37581 33.4024 3.14233C33.6485 2.70022 34.3814 2.47668 35.6039 2.47668C36.9004 2.47668 37.6784 2.80951 37.9324 3.47019C38.0223 3.75582 38.07 4.21284 38.07 4.84123V7.47402C38.9088 7.40199 39.5438 7.36474 39.9751 7.36474C40.4038 7.36474 40.7292 7.37964 40.9488 7.40448C41.1658 7.4318 41.4198 7.51873 41.7109 7.66279C42.2031 7.89626 42.4518 8.58427 42.4518 9.72928C42.4518 10.8569 42.1925 11.5449 41.6791 11.7958C41.3881 11.9224 41.1341 11.9994 40.9171 12.0243C40.6975 12.0516 40.3694 12.064 39.9328 12.064ZM73.4304 4.0076C73.4304 3.28631 72.805 2.71029 71.5568 2.27451C71.055 2.09419 70.62 2.00403 70.2494 2.00403C69.8788 2.00403 69.5649 2.1017 69.3126 2.29455C69.0656 2.48238 68.8932 2.67522 68.7979 2.87558C68.7079 3.07093 68.592 3.37647 68.4479 3.79722L65.3802 12.8934L62.1787 3.49669C62.068 3.20367 61.8081 2.91064 61.3963 2.61512C60.9897 2.31458 60.5522 2.16431 60.0786 2.16431C59.6051 2.16431 59.2165 2.22943 58.9154 2.35465C58.2282 2.64267 57.7547 3.1661 57.4947 3.92746L54.4682 12.8433L51.4005 3.79722C51.2152 3.19615 51.0041 2.75286 50.7725 2.46485C50.5383 2.17934 50.2012 2.03408 49.7637 2.03408C49.3313 2.03408 48.8475 2.12424 48.3122 2.30456C47.0691 2.7203 46.4489 3.28631 46.4489 4.0076C46.4489 4.29561 46.5467 4.7389 46.7474 5.33997L52.1211 20.3768L52.3167 20.7875C52.4454 21.0555 52.7001 21.326 53.0785 21.5989C53.4619 21.8669 53.9483 21.9997 54.5403 21.9997C55.1373 21.9997 55.652 21.7943 56.0844 21.3785C56.2491 21.2183 56.3958 21.0379 56.5271 20.8376C56.6557 20.6372 56.7381 20.4845 56.7741 20.3768C56.8153 20.2716 57.8653 17.2562 59.9242 11.3306L63.1772 20.6773C63.3059 20.9653 63.571 21.2583 63.9699 21.5589C64.3739 21.8544 64.8475 21.9997 65.3905 21.9997C65.9387 21.9997 66.4122 21.8544 66.8111 21.5589C67.2075 21.2583 67.4519 21.0179 67.542 20.8376C67.6372 20.6573 67.7067 20.5045 67.7479 20.3768L73.0907 5.33997C73.3171 4.68631 73.4304 4.24302 73.4304 4.0076ZM71.4316 14.5612C71.4316 12.3703 72.1927 10.5615 73.7199 9.13724C75.2446 7.71548 76.9885 7.00208 78.9517 7.00208C80.9123 7.00208 82.6462 7.71042 84.1532 9.12712C85.6653 10.5388 86.4213 12.34 86.4213 14.5308C86.4213 16.0436 86.0307 17.3895 85.252 18.5684C84.4707 19.7422 83.5207 20.6099 82.3992 21.169C81.2828 21.723 80.1235 21.9988 78.9214 21.9988C77.7244 21.9988 76.5626 21.7053 75.4336 21.1184C74.3096 20.5264 73.362 19.6486 72.5909 18.4874C71.8172 17.3288 71.4316 16.0183 71.4316 14.5612ZM77.1271 16.5142C77.7118 16.9594 78.3015 17.182 78.9013 17.182C79.4985 17.182 80.0958 16.9569 80.6956 16.504C81.3004 16.0461 81.6028 15.3707 81.6028 14.4802C81.6028 13.5846 81.3206 12.9168 80.7561 12.4766C80.1916 12.0389 79.5792 11.8188 78.9214 11.8188C78.2687 11.8188 77.6614 12.049 77.0968 12.5069C76.5323 12.9598 76.2501 13.6302 76.2501 14.5207C76.2501 15.4061 76.5424 16.0689 77.1271 16.5142ZM98.0694 7.88791C97.8396 7.61695 97.5491 7.42676 97.2005 7.31472C96.857 7.19748 96.5388 7.11671 96.2508 7.07503C95.9604 7.02813 95.5992 7.00208 95.1698 7.00208C94.7454 7.00208 94.2504 7.16361 93.6846 7.48147C93.1188 7.80194 92.7475 8.05466 92.5732 8.24225C92.3964 8.42984 92.2651 8.59137 92.1792 8.72164C92.1792 8.40378 92.0781 8.09374 91.8761 7.79412C91.6058 7.35641 90.9213 7.13756 89.8251 7.13756C88.6582 7.13756 87.9484 7.39289 87.6933 7.89833C87.5645 8.16409 87.4862 8.40639 87.4609 8.62785C87.4331 8.8441 87.4205 9.16717 87.4205 9.59706V19.4872V20.3105C87.4609 20.8524 87.6251 21.2563 87.9156 21.5194C88.2995 21.8399 88.9284 21.9988 89.8049 21.9988C90.9491 21.9988 91.6589 21.7565 91.9367 21.2693C92.0781 20.9853 92.1615 20.7352 92.1893 20.5189C92.2145 20.3053 92.2297 19.9822 92.2297 19.5497V13.6302C92.2297 13.1248 92.4419 12.6923 92.8662 12.3379C93.2956 11.9784 93.7578 11.796 94.2504 11.796C94.7404 11.796 95.1395 11.8742 95.4426 12.0253C95.7457 12.1712 96.0589 12.2442 96.3822 12.2442C97.0414 12.2442 97.5441 11.8872 97.8876 11.1707C98.2361 10.4568 98.4129 9.80028 98.4129 9.20104C98.4129 8.59658 98.2968 8.15888 98.0694 7.88791ZM118.557 1.16101C118.2 1.2691 117.947 1.45764 117.8 1.7241C117.658 1.98554 117.574 2.22184 117.547 2.42797C117.519 2.63662 117.505 2.94833 117.505 3.36311V9.07451C116.727 8.16953 115.636 7.71704 114.234 7.71704C112.544 7.71704 110.989 8.436 109.575 9.86887C108.165 11.3043 107.461 12.9709 107.461 14.8663C107.461 16.7567 108.16 18.4159 109.564 19.8437C110.966 21.2665 112.522 21.9754 114.234 21.9754C115.657 21.9754 116.764 21.5405 117.558 20.6682C117.711 21.5531 118.447 21.9955 119.767 21.9955C121.084 21.9955 121.886 21.7517 122.175 21.2615C122.323 21.0076 122.409 20.7763 122.438 20.5677C122.465 20.3615 122.48 20.0498 122.48 19.6325V3.39328C122.48 2.9785 122.465 2.66678 122.438 2.45814C122.409 2.252 122.325 2.01068 122.186 1.73416C122.044 1.46015 121.792 1.2691 121.429 1.16101C121.071 1.05543 120.59 1.00012 119.988 1.00012C119.391 1.00012 118.915 1.05543 118.557 1.16101ZM114.971 17.2394C114.268 17.2394 113.672 16.9955 113.182 16.5054C112.691 16.0177 112.446 15.4747 112.446 14.8764C112.446 14.2731 112.67 13.7251 113.119 13.2273C113.574 12.7321 114.182 12.4832 114.939 12.4832C115.702 12.4832 116.306 12.7397 116.748 13.2474C117.195 13.7502 117.421 14.2982 117.421 14.8865C117.421 15.4772 117.185 16.0177 116.717 16.5054C116.254 16.9955 115.67 17.2394 114.971 17.2394ZM0.803161 30.5429V26.0001H4.51055V30.5429H3.52465V26.8053H1.78906V30.5429H0.803161ZM9.84242 29.5687C9.99903 29.2183 10.0786 28.8083 10.0786 28.3361C10.0786 27.8664 9.99903 27.4564 9.84242 27.1035C9.68323 26.7531 9.44189 26.4822 9.11326 26.2884C8.78463 26.097 8.36357 26.0001 7.85008 26.0001C7.33659 26.0001 6.91553 26.097 6.5869 26.2884C6.25826 26.4822 6.01179 26.7531 5.84747 27.1035C5.68829 27.4489 5.61127 27.8565 5.61127 28.3262C5.61127 28.7983 5.68829 29.2109 5.84747 29.5687C6.01179 29.9216 6.25826 30.1925 6.5869 30.3838C6.91553 30.5777 7.33659 30.6721 7.85008 30.6721C8.35587 30.6721 8.77436 30.5777 9.10299 30.3838C9.43676 30.1925 9.68323 29.9216 9.84242 29.5687ZM6.93607 29.4594C6.75121 29.1885 6.65879 28.8133 6.65879 28.3361C6.65879 27.859 6.75121 27.4862 6.93607 27.2129C7.12606 26.942 7.43159 26.8053 7.85008 26.8053C8.27371 26.8053 8.57923 26.942 8.76409 27.2129C8.94895 27.4862 9.04137 27.859 9.04137 28.3361C9.04137 28.8133 8.94895 29.1885 8.76409 29.4594C8.57923 29.7327 8.27371 29.8669 7.85008 29.8669C7.43159 29.8669 7.12606 29.7327 6.93607 29.4594ZM16.4746 30.5429H10.5797V26.0001H11.5656V29.7377H13.024V26.0001H14.0304V29.7377H15.4887V26.0001H16.4746V30.5429ZM20.3804 29.2109L21.8285 26.0001H20.8015L19.9902 27.9087C19.9491 28.0031 19.9029 28.1125 19.8567 28.2367C19.8079 28.356 19.7694 28.4554 19.7437 28.5349H19.7129C19.6847 28.4554 19.6436 28.356 19.5897 28.2367C19.5332 28.1174 19.4921 28.028 19.4664 27.9683L18.5935 26.0001H17.5357L19.1583 29.2606C19.1019 29.4147 19.0274 29.5439 18.9324 29.6483C18.8348 29.7477 18.6782 29.7974 18.46 29.7974C18.3419 29.7974 18.2238 29.7924 18.1005 29.7775C17.9773 29.7576 17.8643 29.7278 17.7616 29.688V30.5131C17.8695 30.5404 17.9927 30.5578 18.1314 30.5727C18.2674 30.5926 18.3907 30.6025 18.5011 30.6025C18.8708 30.6025 19.1686 30.5479 19.3945 30.4435C19.6205 30.3317 19.8079 30.1726 19.9594 29.9663C20.1083 29.7551 20.2495 29.5041 20.3804 29.2109ZM26.3245 30.5429H25.1949L23.4901 28.2367V30.5429H22.5042V26.0001H23.4901V28.197L25.1743 26.0001H26.2321L24.5273 28.187L26.3245 30.5429ZM35.6788 29.8725V26.1349H32.947C32.87 26.699 32.775 27.2035 32.6595 27.6458C32.5491 28.0907 32.4233 28.4957 32.2795 28.8586C32.1357 29.2239 31.9765 29.5618 31.8071 29.8725H31.4476V31.9997H32.413V30.6777H35.3502V31.9997H36.3052V29.8725H35.6788ZM33.7378 26.9401H34.6929V29.8725H32.8546C32.9984 29.5743 33.1267 29.2562 33.2448 28.9182C33.3604 28.5753 33.4605 28.2323 33.5427 27.8943C33.63 27.5514 33.6967 27.2333 33.7378 26.9401ZM38.909 26.2404C39.5098 26.2404 39.9488 26.3671 40.2235 26.6181C40.5034 26.8716 40.6446 27.2195 40.6446 27.6618C40.6446 27.9277 40.5855 28.1763 40.47 28.4074C40.3596 28.6335 40.1722 28.8149 39.9052 28.9541C39.6382 29.0933 39.2787 29.1628 38.8268 29.1628H38.3955V30.7831H37.4096V26.2404H38.909ZM38.8474 27.0256H38.3955V28.3775H38.7241C39.004 28.3775 39.2274 28.3254 39.3917 28.2185C39.556 28.1067 39.6382 27.9302 39.6382 27.6917C39.6382 27.2493 39.3737 27.0256 38.8474 27.0256ZM44.2293 29.4511L45.6774 26.2404H44.6504L43.8391 28.1489C43.798 28.2433 43.7518 28.3527 43.7056 28.4769C43.6568 28.5962 43.6183 28.6956 43.5926 28.7752H43.5618C43.5335 28.6956 43.4925 28.5962 43.4385 28.4769C43.3821 28.3577 43.341 28.2682 43.3153 28.2086L42.4424 26.2404H41.3846L43.0072 29.5008C42.9507 29.6549 42.8763 29.7841 42.7813 29.8885C42.6837 29.9879 42.5271 30.0376 42.3089 30.0376C42.1908 30.0376 42.0727 30.0326 41.9494 30.0177C41.8262 29.9978 41.7132 29.968 41.6105 29.9282V30.7533C41.7184 30.7806 41.8416 30.798 41.9802 30.8129C42.1163 30.8328 42.2395 30.8428 42.3499 30.8428C42.7197 30.8428 43.0175 30.7881 43.2434 30.6837C43.4694 30.5719 43.6568 30.4128 43.8083 30.2066C43.9572 29.9953 44.0984 29.7444 44.2293 29.4511ZM49.3108 26.2404V27.0356H47.339V30.7831H46.3531V26.2404H49.3108ZM52.4561 29.7195L52.795 30.803H53.8733L52.2096 26.2404H50.9875L49.3341 30.803H50.4021L50.7513 29.7195H52.4561ZM51.881 27.8606L52.2199 28.9143H50.9978L51.3367 27.8606C51.3495 27.8159 51.3726 27.7364 51.4086 27.6221C51.4359 27.5303 51.4633 27.4335 51.4922 27.3316C51.4985 27.3094 51.5048 27.2869 51.5112 27.2642C51.5523 27.14 51.5831 27.0331 51.6037 26.9461C51.6242 27.0331 51.6499 27.135 51.6858 27.2543C51.7192 27.3686 51.7526 27.4804 51.7885 27.5923C51.8219 27.6991 51.8527 27.7886 51.881 27.8606Z" fill="#535353"/>
</svg>
