<svg width="32" height="28" viewBox="0 0 32 28" fill="none" xmlns="http://www.w3.org/2000/svg">
<path d="M30.6786 9.41281C30.3324 8.58602 29.7537 7.98918 29.0095 7.68947L28.9992 7.68688C28.6556 7.55253 28.3016 7.48535 27.9347 7.48535H27.8934C26.1881 7.51119 24.4467 8.96066 23.5605 11.0948C22.912 12.6528 22.837 14.3296 23.3615 15.5801C23.7078 16.4069 24.2865 17.0038 25.0358 17.3035L25.0435 17.3061C25.3872 17.4404 25.7411 17.5076 26.108 17.5076C27.8314 17.5076 29.5909 16.0555 30.4926 13.8956C31.1334 12.3376 31.2057 10.6633 30.6786 9.41281Z" fill="white"/>
<path d="M23.8631 18.6081C22.8787 18.019 21.9486 17.4583 21.3414 16.4533C19.6645 13.6732 18.6543 11.9938 16.0008 11.9938C13.3448 11.9938 12.332 13.6732 10.6525 16.4533C10.0428 17.4609 9.11006 18.019 8.12308 18.6133C6.99141 19.2928 5.82357 19.9956 5.31716 21.3804C5.1208 21.8817 5.02261 22.4036 5.02778 22.9462C5.02778 25.1966 6.77954 27.0284 8.93436 27.0284C10.0479 27.0284 11.2287 26.6435 12.4818 26.2352C13.6858 25.8425 14.9312 25.4394 16.006 25.4394C17.0808 25.4394 18.3236 25.8425 19.5224 26.2352C20.773 26.6409 21.9486 27.0259 23.0647 27.0259C25.2144 27.0259 26.9661 25.194 26.9661 22.9436C26.9687 22.401 26.868 21.8791 26.669 21.3778C26.1626 19.993 24.9948 19.2902 23.8631 18.6081Z" fill="white"/>
<path d="M9.36065 9.79256C10.1073 10.7279 11.053 11.2446 12.0245 11.2446C12.1562 11.2446 12.288 11.2343 12.4198 11.2136C14.448 10.9165 15.7114 8.44127 15.2955 5.57851C15.1223 4.37191 14.6599 3.25058 13.9958 2.41862C13.2517 1.4859 12.3035 0.971741 11.332 0.971741C11.2003 0.971741 11.0685 0.982076 10.9367 1.00275C8.9085 1.29987 7.64506 3.77249 8.06104 6.63784C8.23415 7.84185 8.69664 8.9606 9.36065 9.79256Z" fill="white"/>
<path d="M19.5793 11.2136C19.711 11.2343 19.8428 11.2446 19.9772 11.2446C20.9486 11.2446 21.8943 10.7279 22.6384 9.79256C23.3024 8.9606 23.7623 7.84185 23.938 6.63784C24.354 3.77249 23.0905 1.29987 21.0623 1.00016C20.9306 0.979492 20.7988 0.971741 20.667 0.971741C19.6955 0.971741 18.7473 1.4859 18.0032 2.41862C17.3392 3.25058 16.8767 4.37191 16.7036 5.57851C16.2902 8.44127 17.5511 10.9165 19.5793 11.2136Z" fill="white"/>
<path d="M6.95526 17.3061L6.96301 17.3035C7.71229 17.0038 8.28846 16.4069 8.63468 15.5827C9.16176 14.3296 9.08683 12.6528 8.43832 11.0948C7.54176 8.9374 5.78225 7.48535 4.0615 7.48535C3.69461 7.48535 3.33805 7.55253 2.997 7.68688L2.98667 7.68947C2.24256 7.98659 1.6638 8.58343 1.31759 9.41022C0.793091 10.6633 0.868019 12.3376 1.51653 13.8981C2.41308 16.0555 4.1726 17.5076 5.89335 17.5076C6.26024 17.5076 6.61421 17.4404 6.95526 17.3061Z" fill="white"/>
</svg>
