<svg width="138" height="38" viewBox="0 0 138 38" fill="none" xmlns="http://www.w3.org/2000/svg">
<path fill-rule="evenodd" clip-rule="evenodd" d="M111.484 3.34917C111.484 2.85217 111.499 2.48238 111.532 2.23684C111.561 1.99425 111.653 1.71321 111.804 1.39667C112.103 0.822753 112.934 0.532837 114.301 0.532837C115.602 0.532837 116.413 0.822753 116.738 1.39667C116.904 1.71321 117.002 2.00017 117.034 2.2605C117.073 2.51492 117.093 2.88471 117.093 3.37284V18.2C117.093 18.9662 117.156 19.4514 117.283 19.6555C117.407 19.8626 117.688 19.9632 118.123 19.9632C118.564 19.9632 118.859 19.9809 119.01 20.0105C119.158 20.043 119.342 20.1348 119.555 20.2827C119.981 20.5608 120.194 21.3181 120.194 22.5547C120.194 23.8978 119.981 24.7172 119.555 25.016C119.002 25.4006 117.676 25.4657 115.579 25.2053C113.937 24.9923 112.872 24.448 112.384 23.5723C111.783 22.531 111.484 20.8684 111.484 18.5787V3.34917ZM82.7398 4.04745C82.7398 3.19545 82.0209 2.51504 80.5861 2.00029C80.0092 1.78729 79.5093 1.68079 79.0833 1.68079C78.6573 1.68079 78.2964 1.79616 78.0064 2.02395C77.7224 2.24583 77.5242 2.47362 77.4148 2.71029C77.3112 2.94104 77.1781 3.30195 77.0124 3.79895L73.4861 14.5436L69.8059 3.44395C69.6787 3.09783 69.3799 2.7517 68.9066 2.40262C68.4392 2.04762 67.9363 1.87012 67.3919 1.87012C66.8476 1.87012 66.4009 1.94704 66.0548 2.09495C65.2649 2.43516 64.7206 3.05345 64.4218 3.95279L60.9428 14.4845L57.4164 3.79895C57.2034 3.08895 56.9609 2.56533 56.6946 2.22512C56.4254 1.88787 56.0379 1.71629 55.5349 1.71629C55.0379 1.71629 54.4818 1.82279 53.8664 2.03579C52.4376 2.52687 51.7246 3.19545 51.7246 4.04745C51.7246 4.38766 51.837 4.91129 52.0678 5.62129L58.2448 23.3831L58.4696 23.8683C58.6175 24.1848 58.9104 24.5043 59.3453 24.8268C59.7861 25.1433 60.3452 25.3001 61.0256 25.3001C61.7119 25.3001 62.3036 25.0575 62.8006 24.5665C62.9899 24.3771 63.1586 24.1641 63.3094 23.9275C63.4574 23.6908 63.552 23.5103 63.5934 23.3831C63.6408 23.2589 64.8478 19.697 67.2144 12.6976L70.9538 23.7381C71.1017 24.0783 71.4064 24.4245 71.8649 24.7795C72.3294 25.1285 72.8737 25.3001 73.4979 25.3001C74.1281 25.3001 74.6724 25.1285 75.1309 24.7795C75.5865 24.4245 75.8676 24.1405 75.9711 23.9275C76.0806 23.7145 76.1604 23.534 76.2078 23.3831L82.3493 5.62129C82.6096 4.84916 82.7398 4.32554 82.7398 4.04745ZM18.7441 10.3898C18.7441 9.00229 18.4631 7.745 17.904 6.61492C17.3508 5.47892 16.6378 4.57958 15.7621 3.91692C13.993 2.55313 12.1707 1.86975 10.2951 1.86975H3.44363C2.07688 1.86975 1.24559 2.15967 0.946797 2.73358C0.772255 3.059 0.668713 3.343 0.63913 3.58558C0.606588 3.83113 0.591797 4.19796 0.591797 4.68608V22.4598C0.591797 23.2023 0.653922 23.7555 0.78113 24.1164C1.04146 24.9063 1.91713 25.2998 3.40813 25.2998C4.77192 25.2998 5.60321 25.0128 5.90496 24.4359C6.07655 24.1223 6.18009 23.8413 6.21263 23.5958C6.24221 23.3443 6.25996 22.9745 6.25996 22.4834V18.8743H10.2596C12.1589 18.8743 13.993 18.1879 15.7621 16.8153C16.6378 16.1615 17.3508 15.274 17.904 14.1528C18.4631 13.0345 18.7441 11.7802 18.7441 10.3898ZM12.1766 12.5079C11.5613 12.9753 10.9341 13.2061 10.2951 13.2061H6.25996V7.53792H10.2596C10.9223 7.53792 11.5613 7.7805 12.1766 8.25975C12.7979 8.74196 13.1115 9.45196 13.1115 10.3898C13.1115 11.3305 12.7979 12.0346 12.1766 12.5079ZM33.8166 17.7975C34.4704 17.1673 34.7987 16.197 34.7987 14.8865C34.7987 13.57 34.4349 12.36 33.7101 11.2536C32.3285 9.16505 30.1542 8.1178 27.1899 8.1178C24.5866 8.1178 22.4122 8.92246 20.6697 10.5318C18.9332 12.1411 18.0664 14.2918 18.0664 16.981C18.0664 19.111 18.735 21.0457 20.0781 22.7793C20.7644 23.6727 21.717 24.3886 22.9417 24.933C24.1724 25.4773 25.5747 25.7495 27.1544 25.7495C31.6984 25.7495 33.9704 24.7998 33.9704 22.8976C33.9704 22.4953 33.8314 22.0072 33.5562 21.4303C33.0652 20.4688 32.4794 19.9866 31.7931 19.9866C31.4529 19.9866 31.0269 20.105 30.5151 20.3416L30.1601 20.4718C29.456 20.7262 28.4857 20.8505 27.2491 20.8505C26.545 20.8505 25.8409 20.6493 25.1309 20.247C24.4268 19.8446 24.0777 19.3447 24.0777 18.7441H31.6629C32.4498 18.7441 33.1687 18.4305 33.8166 17.7975ZM29.2607 14.8036C29.2607 15.49 28.8584 15.8331 28.0537 15.8331H24.0186C24.0186 15.1882 24.3558 14.5847 25.0362 14.0226C25.7226 13.4546 26.4119 13.1706 27.1071 13.1706C27.7993 13.1706 28.3318 13.3215 28.7046 13.6203C29.0744 13.922 29.2607 14.3155 29.2607 14.8036ZM45.3994 14.1293L43.3168 13.9991V18.4248C43.3168 19.0016 43.4055 19.4188 43.5889 19.6791C43.7694 19.9335 44.1096 20.0578 44.6066 20.0578C45.1095 20.0578 45.4971 20.0755 45.7663 20.1051C46.0325 20.1376 46.3165 20.2353 46.6183 20.4009C47.1064 20.6849 47.3519 21.4038 47.3519 22.5546C47.3519 23.8977 47.0502 24.7171 46.4526 25.0159C46.1361 25.1668 45.8521 25.2585 45.6006 25.2881C45.3551 25.3206 45.0001 25.3354 44.5356 25.3354C42.3168 25.3354 40.6306 24.8355 39.4709 23.8326C38.3172 22.8327 37.7433 21.1346 37.7433 18.7443V13.9991C37.3409 14.0701 36.9031 14.1056 36.4298 14.1056C35.9623 14.1056 35.5778 13.9251 35.2701 13.5613C34.9624 13.2003 34.8086 12.5791 34.8086 11.7034C34.8086 10.8278 34.8589 10.1947 34.9624 9.79825C35.0719 9.40479 35.2228 9.12079 35.4121 8.94625C35.7493 8.67113 36.1753 8.53208 36.6901 8.53208L37.7433 8.66225V5.36075C37.7433 4.87262 37.7581 4.50875 37.7906 4.27208C37.8291 4.03542 37.9326 3.781 38.0983 3.50292C38.3734 2.97633 39.1928 2.71008 40.5596 2.71008C42.0092 2.71008 42.8789 3.1065 43.1629 3.89342C43.2635 4.23362 43.3168 4.77796 43.3168 5.52642V8.66225C44.2546 8.57646 44.9646 8.53208 45.4468 8.53208C45.926 8.53208 46.2899 8.54983 46.5354 8.57942C46.778 8.61196 47.062 8.7155 47.3874 8.88708C47.9377 9.16517 48.2158 9.98463 48.2158 11.3484C48.2158 12.6915 47.9258 13.511 47.3519 13.8098C47.0265 13.9606 46.7425 14.0523 46.4999 14.0819C46.2544 14.1145 45.8876 14.1293 45.3994 14.1293ZM79.7363 16.9217C79.7363 14.3597 80.6297 12.2445 82.4225 10.579C84.2123 8.9164 86.2595 8.08215 88.564 8.08215C90.8656 8.08215 92.9009 8.91049 94.67 10.5672C96.445 12.2179 97.3325 14.3242 97.3325 16.8862C97.3325 18.6552 96.874 20.2291 95.9598 21.6077C95.0427 22.9803 93.9275 23.995 92.611 24.6488C91.3005 25.2967 89.9396 25.6192 88.5285 25.6192C87.1233 25.6192 85.7595 25.276 84.4342 24.5897C83.1147 23.8974 82.0024 22.8709 81.0972 21.513C80.1889 20.1581 79.7363 18.6257 79.7363 16.9217ZM86.4222 19.2055C87.1085 19.7262 87.8007 19.9865 88.5048 19.9865C89.206 19.9865 89.9071 19.7232 90.6112 19.1937C91.3212 18.6582 91.6762 17.8683 91.6762 16.827C91.6762 15.7797 91.3448 14.9987 90.6822 14.484C90.0195 13.9722 89.3006 13.7148 88.5285 13.7148C87.7623 13.7148 87.0493 13.984 86.3867 14.5195C85.724 15.049 85.3927 15.833 85.3927 16.8743C85.3927 17.9097 85.7358 18.6848 86.4222 19.2055ZM110.607 9.31308C110.338 9.00542 109.998 8.78946 109.589 8.66225C109.187 8.52913 108.814 8.43742 108.477 8.39008C108.137 8.33683 107.714 8.30725 107.211 8.30725C106.714 8.30725 106.134 8.49067 105.471 8.85158C104.809 9.21546 104.374 9.50242 104.17 9.71542C103.963 9.92842 103.809 10.1118 103.708 10.2598C103.708 9.89884 103.59 9.54679 103.353 9.20658C103.037 8.70958 102.235 8.46108 100.951 8.46108C99.5844 8.46108 98.7531 8.751 98.4543 9.32492C98.3034 9.62667 98.2117 9.90179 98.1821 10.1533C98.1496 10.3988 98.1348 10.7656 98.1348 11.2538V22.4836V23.4184C98.1821 24.0338 98.3744 24.4923 98.7146 24.7911C99.1643 25.155 99.9009 25.3354 100.927 25.3354C102.268 25.3354 103.099 25.0603 103.424 24.5071C103.59 24.1846 103.688 23.9006 103.72 23.6551C103.75 23.4125 103.767 23.0457 103.767 22.5546V15.8333C103.767 15.2593 104.016 14.7683 104.513 14.3659C105.016 13.9577 105.557 13.7506 106.134 13.7506C106.708 13.7506 107.175 13.8393 107.53 14.0109C107.885 14.1766 108.252 14.2594 108.631 14.2594C109.403 14.2594 109.992 13.8541 110.394 13.0406C110.802 12.23 111.009 11.4845 111.009 10.8041C111.009 10.1178 110.873 9.62075 110.607 9.31308ZM132.803 0.973635C132.4 1.10084 132.116 1.32272 131.951 1.6363C131.791 1.94397 131.696 2.22205 131.667 2.46464C131.634 2.71018 131.619 3.07701 131.619 3.56514V10.2865C130.744 9.22147 129.516 8.68897 127.939 8.68897C126.037 8.68897 124.288 9.53505 122.697 11.2213C121.111 12.9105 120.318 14.8719 120.318 17.1025C120.318 19.3271 121.105 21.2796 122.685 22.96C124.262 24.6344 126.013 25.4686 127.939 25.4686C129.539 25.4686 130.785 24.9568 131.678 23.9303C131.85 24.9716 132.678 25.4923 134.163 25.4923C135.645 25.4923 136.548 25.2053 136.873 24.6285C137.039 24.3297 137.136 24.0575 137.169 23.812C137.199 23.5694 137.216 23.2026 137.216 22.7115V3.60064C137.216 3.11251 137.199 2.74568 137.169 2.50014C137.136 2.25755 137.042 1.97355 136.885 1.64814C136.725 1.32568 136.441 1.10084 136.033 0.973635C135.631 0.849385 135.089 0.784302 134.412 0.784302C133.74 0.784302 133.205 0.849385 132.803 0.973635ZM128.767 19.8951C127.977 19.8951 127.306 19.6082 126.756 19.0313C126.202 18.4574 125.927 17.8184 125.927 17.1143C125.927 16.4043 126.179 15.7594 126.685 15.1736C127.196 14.5908 127.88 14.298 128.732 14.298C129.59 14.298 130.27 14.5997 130.767 15.1973C131.27 15.789 131.525 16.4339 131.525 17.1261C131.525 17.8213 131.258 18.4574 130.732 19.0313C130.211 19.6082 129.554 19.8951 128.767 19.8951ZM0 35.8933V30.4855H4.27183V35.8933H3.13583V31.444H1.136V35.8933H0ZM12.2347 34.6506C12.4152 34.2335 12.5069 33.7454 12.5069 33.1833C12.5069 32.6242 12.4152 32.136 12.2347 31.716C12.0513 31.2988 11.7732 30.9764 11.3945 30.7456C11.0159 30.5178 10.5307 30.4025 9.93904 30.4025C9.34737 30.4025 8.86221 30.5178 8.48354 30.7456C8.10487 30.9764 7.82088 31.2988 7.63154 31.716C7.44812 32.1272 7.35938 32.6123 7.35938 33.1715C7.35938 33.7336 7.44812 34.2246 7.63154 34.6506C7.82088 35.0707 8.10487 35.3932 8.48354 35.621C8.86221 35.8517 9.34737 35.9641 9.93904 35.9641C10.5218 35.9641 11.004 35.8517 11.3827 35.621C11.7673 35.3932 12.0513 35.0707 12.2347 34.6506ZM8.88587 34.5205C8.67288 34.198 8.56637 33.7513 8.56637 33.1833C8.56637 32.6153 8.67288 32.1715 8.88587 31.8461C9.10479 31.5237 9.45683 31.361 9.93904 31.361C10.4272 31.361 10.7792 31.5237 10.9922 31.8461C11.2052 32.1715 11.3117 32.6153 11.3117 33.1833C11.3117 33.7513 11.2052 34.198 10.9922 34.5205C10.7792 34.8459 10.4272 35.0056 9.93904 35.0056C9.45683 35.0056 9.10479 34.8459 8.88587 34.5205ZM22.3958 35.8933H15.6035V30.4855H16.7395V34.9348H18.4198V30.4855H19.5795V34.9348H21.2598V30.4855H22.3958V35.8933ZM28.395 34.3076L30.0635 30.4855H28.8802L27.9454 32.7575C27.898 32.8699 27.8448 33.0001 27.7915 33.148C27.7353 33.29 27.6909 33.4083 27.6614 33.503H27.6259C27.5933 33.4083 27.546 33.29 27.4839 33.148C27.4188 33.006 27.3714 32.8995 27.3419 32.8285L26.336 30.4855H25.1172L26.9869 34.3668C26.9218 34.5502 26.836 34.7041 26.7265 34.8283C26.6141 34.9466 26.4336 35.0058 26.1822 35.0058C26.0461 35.0058 25.91 34.9999 25.768 34.9821C25.626 34.9585 25.4959 34.923 25.3775 34.8756V35.8578C25.5018 35.8904 25.6438 35.9111 25.8035 35.9288C25.9603 35.9525 26.1023 35.9643 26.2295 35.9643C26.6555 35.9643 26.9987 35.8992 27.259 35.775C27.5194 35.6418 27.7353 35.4525 27.9099 35.207C28.0814 34.9555 28.2441 34.6567 28.395 34.3076ZM37.1227 35.8933H35.821L33.8567 33.148V35.8933H32.7207V30.4855H33.8567V33.1006L35.7974 30.4855H37.0162L35.0519 33.0888L37.1227 35.8933ZM47.5765 34.9348V30.4855H44.4288C44.3401 31.157 44.2306 31.7576 44.0975 32.2841C43.9703 32.8137 43.8253 33.2959 43.6597 33.7278C43.494 34.1627 43.3106 34.565 43.1153 34.9348H42.7012V37.4671H43.8135V35.8933H47.1978V37.4671H48.2983V34.9348H47.5765ZM45.34 31.444H46.4405V34.9348H44.3223C44.488 34.5798 44.6359 34.2011 44.772 33.7988C44.9051 33.3906 45.0205 32.9823 45.1152 32.58C45.2158 32.1717 45.2927 31.7931 45.34 31.444ZM52.8312 30.4855C53.5234 30.4855 54.0293 30.6363 54.3458 30.9351C54.6683 31.2369 54.831 31.6511 54.831 32.1776C54.831 32.4942 54.763 32.79 54.6298 33.0651C54.5026 33.3344 54.2867 33.5503 53.979 33.716C53.6713 33.8816 53.2572 33.9645 52.7365 33.9645H52.2395V35.8933H51.1035V30.4855H52.8312ZM52.7602 31.4203H52.2395V33.0296H52.6182C52.9406 33.0296 53.198 32.9675 53.3873 32.8403C53.5767 32.7072 53.6713 32.4971 53.6713 32.2131C53.6713 31.6866 53.3666 31.4203 52.7602 31.4203ZM60.4907 34.3076L62.1592 30.4855H60.9759L60.0411 32.7575C59.9937 32.8699 59.9405 33.0001 59.8872 33.148C59.831 33.29 59.7866 33.4083 59.7571 33.503H59.7216C59.689 33.4083 59.6417 33.29 59.5796 33.148C59.5145 33.006 59.4671 32.8995 59.4376 32.8285L58.4317 30.4855H57.2129L59.0826 34.3668C59.0175 34.5502 58.9317 34.7041 58.8222 34.8283C58.7098 34.9466 58.5294 35.0058 58.2779 35.0058C58.1418 35.0058 58.0057 34.9999 57.8637 34.9821C57.7217 34.9585 57.5916 34.923 57.4732 34.8756V35.8578C57.5975 35.8904 57.7395 35.9111 57.8992 35.9288C58.056 35.9525 58.198 35.9643 58.3252 35.9643C58.7512 35.9643 59.0944 35.8992 59.3547 35.775C59.6151 35.6418 59.831 35.4525 60.0056 35.207C60.1771 34.9555 60.3398 34.6567 60.4907 34.3076ZM68.2244 30.4855V31.4321H65.9524V35.8933H64.8164V30.4855H68.2244ZM73.943 34.6032L74.3335 35.893H75.576L73.659 30.4615H72.2509L70.3457 35.893H71.5764L71.9787 34.6032H73.943ZM73.2804 32.3904L73.6709 33.6447H72.2627L72.6532 32.3904C72.668 32.3371 72.6946 32.2425 72.736 32.1064C72.7676 31.9973 72.7991 31.8822 72.8322 31.7612C72.8395 31.7346 72.8469 31.7076 72.8544 31.6804C72.9017 31.5325 72.9372 31.4053 72.9609 31.3017C72.9845 31.4053 73.0141 31.5265 73.0555 31.6685C73.094 31.8046 73.1325 31.9378 73.1739 32.0709C73.2123 32.1981 73.2478 32.3046 73.2804 32.3904Z" fill="white"/>
</svg>
